<svg width="26" height="23" viewBox="0 0 26 23" fill="none" xmlns="http://www.w3.org/2000/svg">
<path d="M25.2453 4.88532C24.8527 3.97633 24.2867 3.15261 23.5788 2.46028C22.8704 1.76588 22.0352 1.21405 21.1186 0.8348C20.1682 0.439978 19.1487 0.237886 18.1195 0.240255C16.6756 0.240255 15.2669 0.635642 14.0427 1.38248C13.7498 1.56114 13.4715 1.75737 13.208 1.97117C12.9444 1.75737 12.6661 1.56114 12.3732 1.38248C11.149 0.635642 9.74026 0.240255 8.29636 0.240255C7.25664 0.240255 6.24914 0.439413 5.29728 0.8348C4.37764 1.21554 3.54879 1.76323 2.83709 2.46028C2.12831 3.15183 1.56212 3.97574 1.1706 4.88532C0.763502 5.83132 0.555557 6.83589 0.555557 7.86975C0.555557 8.84504 0.754715 9.86133 1.1501 10.8952C1.48106 11.7592 1.95552 12.6554 2.56178 13.5604C3.52243 14.9926 4.84331 16.4863 6.48344 18.0004C9.20136 20.5104 11.8929 22.2443 12.0071 22.3146L12.7013 22.7597C13.0088 22.956 13.4042 22.956 13.7117 22.7597L14.4058 22.3146C14.5201 22.2413 17.2087 20.5104 19.9295 18.0004C21.5697 16.4863 22.8906 14.9926 23.8512 13.5604C24.4575 12.6554 24.9349 11.7592 25.2629 10.8952C25.6583 9.86133 25.8574 8.84504 25.8574 7.86975C25.8604 6.83589 25.6524 5.83132 25.2453 4.88532Z" fill="#CCCCCC"/>
</svg>
